<svg width="42" height="47" viewBox="0 0 42 47" fill="none" xmlns="http://www.w3.org/2000/svg">
<path d="M35.0431 0.581276C35.3387 0.673246 35.6409 0.748793 35.93 0.863756C38.0124 1.69149 38.9748 4.07286 38.0354 6.12576C37.8548 6.51992 37.9533 6.54948 38.3212 6.55605C40.4201 6.59875 41.8719 8.01115 41.9901 10.1068C41.9967 10.225 41.9967 10.3465 41.9967 10.4648C41.9967 17.9702 41.9934 25.4756 42 32.981C42 34.3409 41.55 35.4577 40.4201 36.2591C39.7106 36.7617 38.8993 36.9128 38.0453 36.9128C33.6438 36.9095 29.2424 36.9128 24.841 36.9128C24.3286 36.9128 24.3286 36.9128 24.4501 37.4186C24.7326 38.6076 25.0184 39.7934 25.2877 40.9857C25.3501 41.2682 25.4684 41.3766 25.7673 41.3667C26.3782 41.3437 26.9892 41.3503 27.6034 41.3634C29.2457 41.393 30.3822 42.5295 30.3789 44.1718C30.3789 44.5331 30.4512 44.6612 30.8388 44.6448C31.568 44.612 32.3004 44.6317 33.0329 44.635C33.6964 44.635 34.0906 44.9667 34.0971 45.5185C34.1037 46.0736 33.7095 46.4251 33.0559 46.4251C25.1925 46.4251 17.329 46.4251 9.46557 46.4251C8.81193 46.4251 8.41777 46.0769 8.42105 45.5218C8.42434 44.9733 8.82178 44.6382 9.48199 44.635C10.2145 44.635 10.9469 44.612 11.6761 44.6448C12.0572 44.6612 12.1393 44.543 12.1393 44.1751C12.136 42.5295 13.2692 41.393 14.9115 41.3634C15.4338 41.3536 15.9593 41.3207 16.4783 41.3733C17.0005 41.4259 17.1976 41.2419 17.2995 40.7328C17.5228 39.6094 17.7987 38.4927 18.0878 37.3825C18.1863 37.008 18.1338 36.9029 17.7232 36.9029C13.2758 36.916 8.83163 36.916 4.38422 36.9095C2.60723 36.9095 1.24739 35.9799 0.718558 34.4394C0.567464 33.996 0.521479 33.5361 0.521479 33.073C0.521479 25.5085 0.518195 17.9439 0.521479 10.3761C0.521479 8.05056 2.04227 6.54619 4.37108 6.54619C12.2214 6.54619 20.0684 6.54619 27.9187 6.55276C28.2702 6.55276 28.487 6.45751 28.6775 6.15532C29.3114 5.16336 30.0176 4.2141 30.6253 3.20571C31.4004 1.92141 32.353 0.899887 33.8869 0.574707C34.2745 0.574707 34.6621 0.574707 35.0497 0.574707L35.0431 0.581276ZM27.1961 8.3429H26.6574C19.2407 8.3429 11.8239 8.3429 4.40722 8.3429C2.99482 8.3429 2.30504 9.03924 2.30504 10.4713C2.30504 12.8888 2.30504 15.3063 2.30504 17.7238C2.30504 20.7523 2.31161 23.784 2.29519 26.8125C2.29519 27.2165 2.41015 27.3249 2.79774 27.3052C3.45138 27.2756 4.1116 27.2855 4.76853 27.3019C5.38276 27.3183 5.77363 27.6993 5.76049 28.2249C5.74735 28.7406 5.36633 29.0789 4.76524 29.0854C4.07875 29.0953 3.39226 29.1019 2.70577 29.0822C2.39373 29.0723 2.29519 29.1741 2.29847 29.4895C2.3149 30.6818 2.29847 31.8774 2.30504 33.0697C2.31161 34.3869 3.04409 35.1226 4.36123 35.1226C15.6276 35.1226 26.8972 35.1226 38.1635 35.1226C39.4544 35.1226 40.1934 34.3803 40.2033 33.096C40.2099 31.9628 40.2033 30.8263 40.2033 29.6931C40.2033 29.2902 40.004 29.0887 39.6055 29.0887C30.5628 29.0887 21.5169 29.0887 12.4743 29.0887C12.2805 29.0887 12.0834 29.0953 11.8929 29.069C11.4725 29.0132 11.1637 28.6716 11.1375 28.2511C11.1112 27.834 11.3772 27.4464 11.7911 27.3544C12.021 27.3019 12.2641 27.2986 12.5006 27.2986C21.5432 27.2986 30.5891 27.292 39.6318 27.3052C40.062 27.3052 40.2131 27.2296 40.2131 26.7533C40.1934 21.337 40.2 15.9173 40.2 10.5009C40.2 10.3367 40.2 10.1724 40.1836 10.0082C40.0785 9.03596 39.3756 8.37574 38.3967 8.34618C37.8909 8.32976 37.3818 8.36589 36.8759 8.33304C36.5212 8.31005 36.3044 8.44472 36.0876 8.71078C33.6077 11.7524 31.1245 14.7907 28.6183 17.8092C28.3096 18.1804 28.1881 18.5089 28.3424 18.9687C28.4311 19.2315 28.4377 19.5271 28.4574 19.8096C28.6118 22.1745 26.9826 24.1355 24.6538 24.4278C23.7998 24.5362 22.9556 24.418 22.1049 24.4081C20.9651 24.3917 19.9272 24.6282 19.0502 25.4296C18.5082 25.9223 17.7757 25.6825 17.5754 24.9763C17.2042 23.6493 16.971 22.2994 16.9743 20.9198C16.9841 16.5381 19.7005 14.6658 22.8144 14.5574C23.0344 14.5509 23.1264 14.4293 23.2282 14.2783C23.6552 13.6312 24.0888 12.9874 24.5224 12.3436C25.3928 11.0429 26.26 9.74544 27.1961 8.34618V8.3429ZM34.534 2.36812C33.7457 2.3944 33.138 2.69659 32.7143 3.32396C31.0096 5.8597 29.3147 8.40202 27.61 10.9378C27.4654 11.1513 27.5016 11.2531 27.6986 11.3943C28.4114 11.9067 29.1242 12.4257 29.8172 12.9677C30.08 13.1746 30.2015 13.1023 30.3822 12.8757C31.1377 11.933 31.9096 11.0035 32.6749 10.0706C33.8278 8.66479 34.9873 7.26225 36.1303 5.84657C36.6854 5.15679 36.7708 4.37833 36.3931 3.58016C36.0186 2.79513 35.3551 2.42396 34.5373 2.37141L34.534 2.36812ZM22.8209 22.6771C23.2677 22.6771 23.7144 22.6968 24.1611 22.6738C25.4224 22.6015 26.3059 21.9183 26.5884 20.8048C26.7362 20.23 26.6837 19.6552 26.5424 19.0804C26.4866 18.8505 26.3749 18.6862 26.1811 18.545C25.2647 17.8782 24.3582 17.1983 23.4483 16.525C23.3432 16.4461 23.2447 16.3607 23.1001 16.341C21.6188 16.1242 19.7925 17.1655 19.2013 18.5844C18.6002 20.0362 18.7184 21.5308 18.9681 23.0285C18.9976 23.1961 19.0469 23.2519 19.2275 23.1665C20.3706 22.6344 21.5826 22.5786 22.8144 22.6771H22.8209ZM21.2049 44.6382C22.637 44.6382 24.0691 44.6382 25.4979 44.6382C26.4209 44.6382 27.3472 44.6382 28.2702 44.6382C28.4016 44.6382 28.5592 44.7007 28.5986 44.4543C28.7169 43.712 28.3096 43.1634 27.564 43.1602C23.3596 43.1536 19.1553 43.1536 14.9509 43.1602C14.2546 43.1602 13.936 43.5247 13.9064 44.2211C13.8933 44.5463 13.9721 44.6514 14.317 44.6481C16.613 44.6317 18.9089 44.6382 21.2049 44.6382ZM21.2542 41.3634C21.8947 41.3634 22.5352 41.3536 23.179 41.3667C23.4746 41.3733 23.5304 41.2715 23.4647 40.9956C23.1593 39.754 22.8669 38.5058 22.5746 37.2609C22.522 37.0376 22.4563 36.8963 22.1739 36.9062C21.5793 36.9325 20.9815 36.9292 20.3837 36.9062C20.1078 36.8963 19.9961 36.9949 19.9337 37.2576C19.648 38.5058 19.3524 39.7507 19.0469 40.9956C18.9779 41.2715 19.0337 41.3733 19.3326 41.3667C19.9732 41.3503 20.6137 41.3634 21.2575 41.3634H21.2542ZM26.9629 16.8863C27.1107 16.8994 27.1534 16.7877 27.2158 16.7122C27.7381 16.0815 28.2505 15.4377 28.7826 14.8169C28.9534 14.6199 28.9337 14.518 28.7267 14.3702C28.0501 13.8841 27.38 13.3848 26.7165 12.879C26.5227 12.7312 26.4111 12.7115 26.2633 12.9447C25.8231 13.6345 25.3665 14.3177 24.8968 14.9877C24.7392 15.2111 24.8049 15.3063 24.9954 15.441C25.5899 15.8647 26.1713 16.3049 26.7592 16.7385C26.8315 16.791 26.9038 16.8403 26.9662 16.8863H26.9629Z" fill="white"/>
<path d="M8.43416 29.0795C7.94146 29.073 7.55716 28.6821 7.55716 28.1927C7.55716 27.7131 7.96117 27.3124 8.44401 27.3091C8.94328 27.3058 9.35715 27.7263 9.34072 28.2255C9.32758 28.7149 8.93014 29.0861 8.43416 29.0795Z" fill="white"/>
</svg>
