<svg width="42" height="47" viewBox="0 0 42 47" fill="none" xmlns="http://www.w3.org/2000/svg">
<path d="M22.662 0C23.6962 0.340116 24.1505 1.0877 24.2421 2.13499C24.3031 2.83542 24.4489 3.52576 24.5405 4.22283C24.5744 4.46529 24.6727 4.58315 24.927 4.64376C26.6664 5.04449 28.294 5.71462 29.8028 6.65752C30.0198 6.79222 30.1521 6.74171 30.3284 6.61037C31.0031 6.10188 31.6847 5.6035 32.3696 5.10848C33.2817 4.44845 34.2277 4.51917 35.0381 5.30716C35.5873 5.84259 36.1332 6.38139 36.6724 6.93029C37.4454 7.71828 37.5133 8.65781 36.869 9.54682C36.3638 10.2405 35.8518 10.9309 35.3297 11.6111C35.1839 11.7997 35.1872 11.9344 35.3127 12.1331C36.2417 13.608 36.9131 15.1941 37.3098 16.8913C37.381 17.1978 37.5234 17.3122 37.8252 17.3527C38.6627 17.4604 39.5002 17.5917 40.3377 17.7197C41.3312 17.8746 41.9822 18.6155 41.9924 19.619C42.0025 20.444 42.0025 21.2724 41.9924 22.0974C41.9788 23.0875 41.3719 23.8048 40.375 23.9765C39.5104 24.128 38.6424 24.2526 37.7743 24.3739C37.5167 24.4109 37.3878 24.4985 37.3234 24.778C36.9233 26.4886 36.2485 28.0882 35.3127 29.58C35.1872 29.782 35.1872 29.9134 35.333 30.102C35.8484 30.7687 36.3469 31.4489 36.8453 32.1292C37.5268 33.0552 37.4522 33.9981 36.6385 34.8164C36.1197 35.3384 35.5975 35.857 35.0686 36.3756C34.2277 37.2006 33.2952 37.268 32.3255 36.5709C31.6541 36.086 30.9862 35.5943 30.3216 35.0993C30.1622 34.9814 30.0402 34.9175 29.8299 35.0387C29.2739 35.3653 28.7042 35.665 28.1278 35.958C27.9278 36.059 27.8769 36.1432 28.0261 36.3284C28.6364 37.0828 28.8466 37.9583 28.7687 38.9079C28.7449 39.1807 28.8602 39.2952 29.1009 39.4097C30.1453 39.9047 30.6403 40.9756 30.3284 42.0835C30.247 42.3764 30.308 42.4573 30.5759 42.5684C31.4982 42.9557 31.9898 43.6662 32.0203 44.6697C32.0339 45.1445 32.0271 45.6193 32.0237 46.0908C32.0203 46.7777 31.7999 47 31.115 47C29.0976 47 27.0801 47 25.0626 47C20.3801 47 15.6975 47 11.015 47C10.1639 47 9.9808 46.8215 9.97741 45.9864C9.97741 45.5419 9.96724 45.0974 9.9808 44.6562C10.0113 43.6527 10.5131 42.9523 11.432 42.5583C11.6626 42.4606 11.7575 42.4034 11.6762 42.1138C11.3473 40.9453 11.8355 39.9148 12.9477 39.3827C13.1647 39.2784 13.246 39.1672 13.2257 38.9382C13.1477 37.9751 13.3478 37.0828 13.975 36.315C14.1344 36.1197 14.053 36.0456 13.8632 35.9479C13.3037 35.6617 12.7442 35.3687 12.2017 35.0522C11.9881 34.9276 11.8525 34.9612 11.6694 35.0959C10.9946 35.6044 10.3131 36.1028 9.62817 36.5978C8.71268 37.2545 7.7599 37.1838 6.95969 36.3992C6.4104 35.8637 5.8645 35.3249 5.32538 34.776C4.55569 33.9948 4.48448 33.0451 5.12872 32.1595C5.62376 31.4793 6.12219 30.7957 6.64097 30.1323C6.81389 29.9134 6.80372 29.7551 6.66131 29.5295C5.74243 28.068 5.08125 26.492 4.68792 24.8116C4.61672 24.4985 4.47092 24.3941 4.17593 24.357C3.33843 24.2459 2.49753 24.1247 1.66681 23.9799C0.595354 23.7947 0.0121538 23.0909 0.00537242 21.9998C0.00198172 21.2051 -0.00479967 20.4103 0.00537242 19.6122C0.0189352 18.6087 0.666558 17.8679 1.66342 17.7163C2.50093 17.5884 3.33504 17.4638 4.17593 17.3459C4.43701 17.3089 4.60655 17.2449 4.67775 16.9317C5.07446 15.221 5.74921 13.6181 6.68504 12.1297C6.8105 11.9276 6.8105 11.7963 6.66809 11.6077C6.14592 10.9275 5.63393 10.2372 5.12872 9.54345C4.48109 8.65444 4.5523 7.71491 5.32538 6.92692C5.87467 6.36792 6.42735 5.81565 6.9936 5.27348C7.76668 4.5259 8.71946 4.45518 9.59087 5.07817C10.3029 5.58666 11.0116 6.10525 11.7067 6.63395C11.883 6.76865 12.0084 6.77201 12.1949 6.65752C13.7038 5.71462 15.3313 5.04113 17.0707 4.64376C17.3251 4.58652 17.4234 4.46529 17.4573 4.22283C17.5522 3.52576 17.698 2.83542 17.7557 2.13499C17.8472 1.0877 18.3016 0.343484 19.3357 0.00336749H22.662V0ZM13.2223 17.5816C13.2223 16.9385 13.2223 16.2953 13.2223 15.6554C13.2223 15.6251 13.2223 15.5948 13.2223 15.5645C13.2427 14.7361 13.8157 14.1603 14.6566 14.1434C15.2262 14.1333 15.7958 14.1333 16.3655 14.1434C17.186 14.1603 17.7523 14.7024 17.7964 15.5207C17.8167 15.9013 17.8235 16.2852 17.7964 16.6691C17.7726 17.0327 17.993 16.9957 18.2372 17.0092C18.5118 17.026 18.6305 16.9486 18.6067 16.6556C18.583 16.3222 18.5966 15.9821 18.6033 15.6453C18.6169 14.7327 19.1933 14.1535 20.1054 14.1434C20.7056 14.1367 21.3057 14.1367 21.9093 14.1434C22.7909 14.1569 23.3741 14.7361 23.391 15.6184C23.3978 15.9383 23.408 16.2616 23.391 16.5815C23.3741 16.8711 23.4215 17.0159 23.7775 17.0193C24.1505 17.0226 24.2183 16.8745 24.198 16.5579C24.1777 16.2212 24.1844 15.8844 24.198 15.5477C24.2353 14.7058 24.8015 14.1569 25.6458 14.1434C26.1849 14.1333 26.7241 14.1367 27.2632 14.1434C28.1888 14.1535 28.7653 14.7159 28.772 15.6285C28.7788 16.898 28.772 18.1676 28.772 19.4371C28.772 20.3632 28.3652 21.0603 27.5548 21.498C27.2903 21.6428 27.27 21.754 27.3547 22.0267C27.7006 23.1346 27.2225 24.3436 26.1748 24.7544C25.6085 24.9766 25.5204 25.2865 25.578 25.7747C25.5848 25.8185 25.5848 25.8657 25.578 25.9128C25.5373 26.1957 25.656 26.3068 25.9408 26.2698C26.1103 26.2462 26.2833 26.2765 26.4291 26.3708C26.7037 26.5459 26.8258 26.7951 26.7478 27.115C26.6664 27.4585 26.4291 27.6673 26.0866 27.6336C25.6255 27.5864 25.5577 27.7952 25.5712 28.1825C25.5984 29.085 25.6221 29.9841 25.7781 30.8765C25.8357 31.22 25.9171 31.2738 26.2392 31.1189C30.8505 28.8728 33.4648 23.4411 32.3221 18.4538C30.8031 11.8266 24.2556 7.97421 17.6777 9.83306C17.0945 9.99806 16.7147 9.8499 16.5927 9.40539C16.4808 9.00129 16.7249 8.68138 17.2911 8.513C19.2103 7.94053 21.1633 7.82267 23.1367 8.15942C31.0235 9.49631 35.8416 17.4604 33.2817 24.9733C32.1187 28.3812 29.8639 30.8731 26.6122 32.4592C26.2934 32.6141 26.2019 32.7522 26.3545 33.0754C26.585 33.5738 26.7953 34.0823 26.9987 34.5942C27.0937 34.8333 27.2089 34.8737 27.4463 34.7592C28.1549 34.4191 28.85 34.0621 29.4943 33.6142C29.9045 33.328 30.2673 33.3347 30.6708 33.6412C31.4778 34.2541 32.3018 34.8467 33.1223 35.4428C33.5495 35.7526 33.7428 35.7391 34.1226 35.3653C34.6142 34.8804 35.1059 34.3955 35.5941 33.9038C35.9874 33.5098 36.001 33.3246 35.6653 32.8734C35.055 32.0484 34.4447 31.22 33.8242 30.4017C33.5699 30.0649 33.5428 29.745 33.7835 29.3914C34.9296 27.6976 35.7094 25.8488 36.1061 23.8418C36.1909 23.4141 36.4147 23.1784 36.869 23.1178C37.8761 22.9865 38.8763 22.8215 39.8834 22.6733C40.4733 22.5857 40.5988 22.4544 40.6022 21.8819C40.6022 21.1781 40.592 20.4743 40.6056 19.7705C40.6157 19.3428 40.4327 19.124 40.002 19.0633C39.0255 18.9286 38.0558 18.7704 37.0793 18.6323C36.3842 18.5346 36.2146 18.4134 36.0926 17.8106C35.6992 15.8508 34.9397 14.0458 33.8242 12.389C33.5529 11.9849 33.5665 11.6448 33.8615 11.2609C34.4786 10.4594 35.0754 9.64111 35.6789 8.82955C36.001 8.39514 35.9874 8.20993 35.6179 7.83614C35.1194 7.33438 34.621 6.836 34.1158 6.34098C33.7259 5.96045 33.5631 5.95035 33.1189 6.27699C32.2882 6.88314 31.4541 7.48592 30.6301 8.10554C30.2775 8.37157 29.9452 8.39514 29.5756 8.14595C27.8701 7.00437 26.0086 6.23322 23.9878 5.84596C23.5809 5.7685 23.3435 5.54625 23.2859 5.11521C23.1469 4.1016 22.9875 3.08798 22.8282 2.07774C22.7366 1.49853 22.5976 1.38067 22.011 1.3773C21.3498 1.3773 20.6852 1.3773 20.024 1.3773C19.3934 1.3773 19.2611 1.49853 19.1662 2.13499C19.0204 3.10145 18.8576 4.06792 18.739 5.03776C18.6745 5.54962 18.3999 5.77861 17.9184 5.8729C15.962 6.25005 14.1548 7.001 12.5001 8.10554C12.0796 8.38504 11.727 8.3783 11.3269 8.07186C10.5335 7.46572 9.72311 6.88314 8.91612 6.29383C8.42786 5.93688 8.28885 5.95035 7.85144 6.38475C7.35979 6.86967 6.87831 7.36806 6.37649 7.84287C6.04759 8.15605 6.03403 8.44902 6.30529 8.80597C6.89188 9.57376 7.46151 10.355 8.03793 11.1295C8.50246 11.7559 8.50924 11.8771 8.09219 12.5136C7.04107 14.1199 6.30868 15.8575 5.92553 17.7365C5.7899 18.4033 5.65088 18.5279 4.9524 18.6289C4.00979 18.767 3.06378 18.8983 2.12117 19.0465C1.48372 19.1475 1.40234 19.2485 1.39895 19.8783C1.39895 20.5349 1.39895 21.195 1.39895 21.8516C1.39895 22.4611 1.52101 22.5891 2.13134 22.6766C3.10447 22.8181 4.0776 22.9898 5.05412 23.1043C5.56611 23.1649 5.81703 23.4141 5.91197 23.899C6.29172 25.8589 7.05802 27.6673 8.17695 29.3241C8.44821 29.7282 8.43804 30.0683 8.14305 30.4522C7.52594 31.2536 6.92918 32.0719 6.32902 32.8835C6.00691 33.3179 6.01708 33.5065 6.38666 33.8803C6.8851 34.382 7.38692 34.877 7.88874 35.3721C8.26172 35.7358 8.45838 35.7492 8.89239 35.4361C9.71294 34.84 10.5335 34.2473 11.3405 33.6344C11.7236 33.3415 12.0763 33.3246 12.4764 33.5974C13.1342 34.0486 13.8428 34.4191 14.565 34.7626C14.7719 34.8602 14.8939 34.8535 14.9855 34.6245C15.1855 34.1295 15.3924 33.6344 15.6195 33.1495C15.7891 32.7892 15.7111 32.6141 15.3313 32.4289C7.65478 28.7213 5.62037 18.8175 11.2082 12.4126C12.1034 11.3855 13.1375 10.5234 14.3073 9.82632C14.7007 9.5906 15.1109 9.67479 15.3178 10.0115C15.5212 10.3382 15.4297 10.7052 15.0736 10.9713C14.999 11.0251 14.921 11.0723 14.8431 11.1228C10.6216 13.8067 8.59062 18.6424 9.73328 23.4815C10.5369 26.886 12.5645 29.3948 15.6568 31.0651C16.0027 31.2503 16.162 31.3008 16.2332 30.8091C16.3621 29.9134 16.3994 29.0143 16.4231 28.1118C16.4333 27.7784 16.3723 27.6134 15.9756 27.6336C15.5076 27.6572 15.2126 27.3541 15.216 26.9567C15.216 26.5661 15.5212 26.2563 15.9823 26.2799C16.3858 26.3001 16.4536 26.125 16.4163 25.7983C16.4028 25.6771 16.4028 25.5525 16.4163 25.4313C16.4503 25.1383 16.3621 24.9834 16.0468 24.8689C14.8668 24.4412 14.2633 23.239 14.6362 22.0503C14.738 21.7237 14.6566 21.6226 14.3853 21.4677C13.636 21.0434 13.2325 20.3868 13.2257 19.5146C13.2189 18.8714 13.2257 18.2282 13.2257 17.5884L13.2223 17.5816ZM20.9768 42.3966C23.2418 42.3966 25.5068 42.3966 27.7718 42.3966C27.9718 42.3966 28.1753 42.3899 28.3652 42.3394C28.7958 42.2283 29.0636 41.8376 29.0331 41.4133C28.9992 40.9688 28.6568 40.6186 28.199 40.5782C28.06 40.5647 27.921 40.5715 27.782 40.5715C25.2695 40.5715 22.7603 40.5715 20.2478 40.5715C20.0783 40.5715 19.902 40.5849 19.7426 40.5445C19.39 40.457 19.1764 40.2179 19.1967 39.8475C19.2171 39.4636 19.4408 39.2312 19.8409 39.1975C19.98 39.1874 20.119 39.1908 20.258 39.1908C22.4925 39.1908 24.7269 39.1908 26.958 39.1841C27.114 39.1841 27.3649 39.2986 27.3785 38.9854C27.4022 38.3994 27.3954 37.8303 27.0292 37.3151C25.0525 34.5403 24.12 31.4422 24.198 28.0478C24.2082 27.6807 24.0624 27.6269 23.7403 27.6302C21.9703 27.6437 20.197 27.6302 18.427 27.637C17.7523 27.637 17.8031 27.5292 17.8065 28.2431C17.8303 31.523 16.9283 34.5201 15.0329 37.2073C14.6837 37.699 14.5955 38.2311 14.6023 38.8103C14.6023 39.1201 14.7108 39.1975 15.0024 39.1908C15.7111 39.174 16.4197 39.174 17.1284 39.1908C17.5217 39.2009 17.7557 39.4333 17.7794 39.8273C17.8065 40.2246 17.5794 40.457 17.2064 40.5445C17.0741 40.5748 16.9317 40.5647 16.7927 40.5647C15.823 40.5647 14.8532 40.558 13.8801 40.5715C13.3613 40.5782 12.9917 40.9352 12.9612 41.4167C12.9307 41.8915 13.2664 42.2923 13.7716 42.3731C13.9377 42.4 14.1107 42.3933 14.2768 42.3933C16.5113 42.3933 18.7458 42.3933 20.9768 42.3933V42.3966ZM20.9768 23.6465C22.3162 23.6465 23.6555 23.6532 24.9948 23.6465C25.6628 23.6431 26.0798 23.2693 26.0798 22.7137C26.0798 22.1614 25.6492 21.7843 24.9982 21.7742C24.6456 21.7674 24.2895 21.7742 23.9369 21.7742C23.3944 21.7674 23.0926 21.5149 23.096 21.0805C23.0994 20.6528 23.4114 20.3969 23.9539 20.3935C24.7405 20.3868 25.5238 20.3935 26.3104 20.3935C27.0665 20.3935 27.3852 20.0837 27.3886 19.3428C27.392 18.5313 27.4022 17.7231 27.3853 16.9115C27.3751 16.4603 27.5955 15.8272 27.2869 15.6049C26.975 15.3759 26.3714 15.5443 25.8967 15.5207C25.6492 15.5073 25.578 15.6117 25.5814 15.8407C25.5916 16.238 25.595 16.6354 25.5814 17.0327C25.5441 17.8578 25.0287 18.3595 24.2014 18.3831C23.9098 18.3932 23.6148 18.3932 23.3232 18.3831C22.5501 18.3494 22.0347 17.8308 22.011 17.0664C21.9974 16.6691 21.9974 16.2717 22.011 15.8743C22.0178 15.6319 21.9669 15.5073 21.6855 15.5207C21.2244 15.5409 20.7598 15.5376 20.2987 15.5207C20.0444 15.5106 19.9834 15.6184 19.9901 15.8474C20.0037 16.2582 20.0037 16.6724 19.9901 17.0866C19.9664 17.8241 19.451 18.3461 18.7085 18.3865C18.4169 18.4033 18.1219 18.3999 17.8303 18.3932C16.9724 18.3696 16.4638 17.8813 16.4231 17.0226C16.4062 16.6724 16.3994 16.3188 16.4231 15.9686C16.4469 15.642 16.3587 15.4871 15.9959 15.5241C15.6772 15.5578 15.3483 15.551 15.0262 15.5241C14.7074 15.4972 14.6023 15.5915 14.6091 15.9248C14.6294 17.0698 14.6125 18.2181 14.6193 19.3664C14.6193 20.0803 14.9448 20.3969 15.667 20.4002C17.0233 20.4036 18.3762 20.4002 19.7324 20.4002C20.1631 20.4002 20.5971 20.3834 21.0243 20.4103C21.4075 20.4373 21.655 20.6562 21.6787 21.0535C21.7024 21.4004 21.5295 21.6462 21.1938 21.7472C21.0514 21.791 20.8887 21.7809 20.7361 21.7809C19.4748 21.7809 18.21 21.7708 16.9487 21.7876C16.1214 21.7977 15.6568 22.5554 16.0569 23.2053C16.2875 23.5758 16.6469 23.66 17.0538 23.66C18.3626 23.66 19.6714 23.66 20.9802 23.66L20.9768 23.6465ZM20.9497 45.6261C23.3808 45.6261 25.8154 45.6261 28.2465 45.6261C28.9246 45.6261 29.6028 45.6294 30.2775 45.6261C30.4131 45.6261 30.5759 45.6934 30.6301 45.451C30.8743 44.3532 30.4199 43.7739 29.284 43.7739C23.7572 43.7739 18.2304 43.7739 12.7001 43.7739C12.5476 43.7739 12.3916 43.7706 12.239 43.7807C11.7202 43.8211 11.3981 44.1444 11.3642 44.6663C11.354 44.8179 11.3744 44.9728 11.354 45.1243C11.2998 45.5116 11.4185 45.6395 11.8457 45.6362C14.8804 45.616 17.9116 45.6261 20.9463 45.6261H20.9497ZM20.9701 26.263C21.7838 26.263 22.5976 26.263 23.4114 26.263C24.198 26.263 24.1743 26.263 24.2014 25.4986C24.2149 25.1012 24.0691 25.0204 23.6996 25.0238C22.011 25.0406 20.319 25.0305 18.6305 25.0305C17.7896 25.0305 17.8133 25.0305 17.7964 25.8522C17.7896 26.2159 17.9286 26.2765 18.2507 26.2698C19.156 26.2496 20.0647 26.263 20.9701 26.263Z" fill="white"/>
</svg>
