<svg width="41" height="41" viewBox="0 0 41 41" fill="none" xmlns="http://www.w3.org/2000/svg">
<path d="M24.7587 34.1866C25.1522 35.5045 25.5301 36.7755 25.9111 38.0497C26.0422 38.4838 26.189 38.9147 26.2983 39.3519C26.3545 39.5737 26.4576 39.6455 26.6793 39.6393C27.2196 39.6236 27.7567 39.6455 28.297 39.6299C28.5344 39.6236 28.6062 39.6955 28.6124 39.9391C28.6374 40.9977 28.6437 40.9977 27.6068 40.9977C22.6414 40.9977 17.6759 40.9915 12.7104 41.0071C12.3231 41.0071 12.2419 40.9009 12.2513 40.5355C12.2763 39.633 12.2576 39.6424 13.1601 39.6299C13.5942 39.6236 14.1376 39.8079 14.4343 39.5518C14.7091 39.3145 14.7309 38.7804 14.8527 38.3745C15.2337 37.1128 15.6147 35.8511 15.9926 34.5894C16.027 34.4708 16.0519 34.3459 16.0925 34.1835H15.5648C11.152 34.1835 6.73932 34.1835 2.3266 34.1835C0.796351 34.1866 0 33.384 0 31.8475C0 22.0571 0 12.2666 0 2.47619C0 0.917842 0.793228 0.130859 2.36407 0.130859C14.4093 0.130859 26.4545 0.130859 38.5028 0.130859C40.0955 0.130859 40.87 0.911596 40.87 2.51679C40.87 12.2791 40.87 22.0383 40.87 31.8007C40.87 33.4027 40.0955 34.1866 38.5028 34.1866C34.1057 34.1866 29.7055 34.1866 25.3084 34.1866H24.7618H24.7587ZM20.3897 32.825C26.4201 32.825 32.4505 32.825 38.4809 32.825C39.321 32.825 39.5053 32.6407 39.5053 31.8069C39.5053 22.0446 39.5053 12.2854 39.5053 2.52304C39.5053 1.67984 39.3241 1.49559 38.4872 1.49559C26.4545 1.49559 14.4249 1.49559 2.39218 1.49559C1.54274 1.49559 1.3616 1.67359 1.3616 2.50742C1.3616 11.0768 1.36473 19.6462 1.35224 28.2155C1.35224 28.634 1.43656 28.7495 1.87689 28.7495C11.8641 28.7339 21.8544 28.737 31.8416 28.737C32.6941 28.737 32.6691 28.737 32.7035 29.6021C32.7191 30.0175 32.6004 30.108 32.1945 30.108C22.1354 30.0955 12.0764 30.0987 2.01742 30.0987C1.91749 30.0987 1.81755 30.108 1.72074 30.0987C1.45529 30.0643 1.34287 30.1486 1.35848 30.4422C1.38347 30.895 1.36473 31.351 1.36473 31.8038C1.36473 32.6439 1.54586 32.825 2.38593 32.825C8.38823 32.825 14.3905 32.825 20.3897 32.825ZM20.4334 39.6361C21.8231 39.6361 23.2129 39.6299 24.6026 39.6393C24.8774 39.6393 24.9711 39.6111 24.8743 39.2989C24.3777 37.703 23.8999 36.1041 23.4346 34.4989C23.3596 34.2397 23.2378 34.1803 22.9911 34.1803C21.2891 34.1897 19.5871 34.1897 17.8882 34.1803C17.6415 34.1803 17.5166 34.2334 17.4417 34.4958C16.9763 36.101 16.4954 37.6999 16.002 39.2957C15.9052 39.6049 15.9895 39.6424 16.2705 39.6393C17.6603 39.6268 19.05 39.633 20.4397 39.633L20.4334 39.6361Z" fill="white"/>
<path d="M14.3624 12.6852C14.0564 12.401 13.8065 12.1699 13.5629 11.9357C13.3881 11.7671 13.1819 11.7077 12.9446 11.7077C11.1864 11.7109 9.42503 11.714 7.66681 11.7046C7.44821 11.7046 7.3514 11.7889 7.25146 11.9701C6.77677 12.8414 5.87424 13.238 4.9561 13.0038C4.03171 12.7664 3.40399 11.9576 3.40712 11.0113C3.41336 10.0869 4.03795 9.28745 4.94361 9.05323C5.86487 8.81589 6.7799 9.20625 7.23897 10.0744C7.36389 10.3118 7.50754 10.3493 7.73864 10.3493C9.44065 10.343 11.1427 10.3586 12.8478 10.3399C13.5786 10.3305 14.1719 10.571 14.6685 11.1019C14.9402 11.3923 15.2337 11.6609 15.5085 11.9482C15.6865 12.1356 15.8083 12.1356 15.9083 11.8857C16.0519 11.5329 16.1956 11.1768 16.3486 10.8271C16.4017 10.7021 16.4048 10.5835 16.3486 10.4617C16.3361 10.4367 16.3236 10.4117 16.3174 10.3836C15.927 8.70034 14.7528 7.57295 13.5504 6.46431C13.3849 6.31128 13.1913 6.25819 12.9665 6.25819C11.2082 6.26132 9.44689 6.26756 7.68868 6.25195C7.41073 6.25195 7.33578 6.39873 7.2296 6.5861C6.72368 7.47302 5.6775 7.84465 4.73437 7.48551C3.80998 7.13262 3.25409 6.14264 3.45084 5.19639C3.6632 4.17831 4.54699 3.47877 5.57132 3.54123C6.32082 3.58807 6.89857 3.94721 7.24522 4.61552C7.36389 4.8435 7.49818 4.90283 7.73552 4.90283C9.46563 4.89347 11.1989 4.90283 12.929 4.89347C13.5942 4.89034 14.1438 5.11207 14.606 5.58364C14.9808 5.97088 15.3836 6.33314 15.7428 6.73288C15.952 6.96398 16.0769 6.92963 16.2737 6.72039C16.7109 6.25507 17.1793 5.82098 17.6196 5.35878C17.7727 5.19951 17.9007 5.17765 18.0975 5.25885C18.8438 5.56802 19.5996 5.85533 20.3397 6.17075C20.6208 6.28942 20.855 6.26132 21.1423 6.177C21.8918 5.95527 22.3665 5.52118 22.5914 4.74981C22.7506 4.19705 23.0442 3.68176 23.2597 3.14149C23.344 2.92913 23.4533 2.84169 23.6969 2.84481C24.7056 2.86043 25.7112 2.86043 26.7199 2.84481C26.9604 2.84169 27.0728 2.92289 27.1602 3.13837C27.4663 3.88475 27.8036 4.62177 28.1003 5.37128C28.2096 5.6461 28.4001 5.77101 28.6436 5.91155C29.3432 6.31441 30.0021 6.30504 30.7142 5.92404C31.2232 5.64922 31.7884 5.48683 32.3225 5.25885C32.5192 5.17453 32.6473 5.19639 32.8034 5.35566C33.5154 6.08643 34.24 6.81095 34.9707 7.52299C35.13 7.67913 35.1487 7.80717 35.0675 8.00392C34.7584 8.7503 34.4742 9.50606 34.1556 10.2462C34.037 10.5273 34.0682 10.7615 34.1525 11.0488C34.3742 11.8014 34.8115 12.273 35.5797 12.4947C36.1325 12.654 36.6478 12.9475 37.188 13.163C37.4035 13.2505 37.4847 13.366 37.4816 13.6034C37.4691 14.6121 37.466 15.6177 37.4816 16.6264C37.4847 16.87 37.3973 16.9761 37.1849 17.0636C36.4385 17.3696 35.7015 17.7038 34.9551 18.0067C34.699 18.1098 34.5085 18.2441 34.443 18.5158C34.3899 18.7344 34.2743 18.7937 34.0776 18.675C34.0401 18.6532 34.0026 18.6376 33.962 18.6219C33.0126 18.2378 33.0189 18.2409 33.4592 17.3197C33.5435 17.1417 33.681 17.0761 33.8371 17.0074C34.4992 16.7201 35.1612 16.4265 35.8327 16.1579C36.0513 16.0705 36.1325 15.9549 36.12 15.7207C36.095 15.2242 36.2605 14.6433 36.0544 14.2561C35.8452 13.8657 35.2206 13.7595 34.7552 13.6252C33.8277 13.3566 33.3624 12.7633 33.0033 11.8795C32.6535 11.0176 32.5005 10.2649 33.0158 9.45921C33.0314 9.43423 33.0376 9.40612 33.047 9.38114C33.2125 8.94705 33.581 8.46299 33.4936 8.08824C33.3812 7.60418 32.7878 7.31375 32.4349 6.91089C32.3006 6.75786 32.1757 6.79534 32.0227 6.8578C31.3544 7.1295 30.6767 7.38558 30.0146 7.66976C29.771 7.77282 29.5743 7.76658 29.3338 7.65727C28.7529 7.39495 28.1596 7.16073 27.5662 6.92963C27.3382 6.84218 27.1946 6.7079 27.104 6.4768C26.8323 5.80849 26.5294 5.14955 26.2608 4.48124C26.1796 4.27825 26.0735 4.20017 25.8549 4.20954C25.3458 4.2314 24.7275 4.05652 24.3558 4.28449C24.0061 4.49997 23.8562 5.11832 23.725 5.58988C23.4689 6.50491 22.8756 6.95461 22.0136 7.31687C21.1205 7.69163 20.3522 7.78531 19.509 7.29501C19.1936 7.11076 18.8251 7.02332 18.4909 6.87341C18.2723 6.7766 18.1131 6.77036 17.9382 6.97022C17.6103 7.34186 17.0763 7.63541 16.9545 8.05389C16.8327 8.47549 17.1949 8.99389 17.4291 9.41862C17.8976 10.2618 17.7945 11.0113 17.4323 11.8857C17.0763 12.7477 16.6422 13.3848 15.7084 13.594C15.6959 13.594 15.6834 13.6065 15.6709 13.6127C15.2306 13.8095 14.5935 13.8938 14.403 14.2311C14.1782 14.6308 14.3437 15.2492 14.3218 15.7738C14.3124 15.9862 14.4061 16.0674 14.5841 16.1423C15.2649 16.4234 15.9364 16.7232 16.6172 17.0043C16.8139 17.0854 16.9388 17.2072 17.0169 17.4071C17.2668 18.0379 17.526 18.6688 17.7977 19.2902C17.8851 19.4901 17.8757 19.6588 17.7945 19.8555C17.5166 20.5207 17.2636 21.2015 16.9763 21.8604C16.8701 22.1009 16.9232 22.2446 17.1012 22.4101C17.3917 22.6786 17.679 22.9566 17.9413 23.2533C18.1006 23.4344 18.2474 23.4469 18.4566 23.3594C19.1343 23.0753 19.8244 22.8129 20.5021 22.5256C20.6864 22.4475 20.8425 22.4475 21.0268 22.5256C21.6514 22.7942 22.2791 23.0565 22.913 23.3032C23.1316 23.3876 23.2503 23.5312 23.3378 23.7404C23.6126 24.4088 23.9124 25.0646 24.1841 25.736C24.2653 25.939 24.3683 26.0202 24.5869 26.0108C25.096 25.989 25.7143 26.1639 26.0859 25.9359C26.4357 25.7204 26.5325 25.0896 26.7293 24.6367C27.1634 23.6343 27.1602 23.6405 28.1502 24.1214C28.3313 24.2089 28.3719 24.2807 28.2876 24.4681C27.9004 25.3488 27.5225 26.2357 27.1509 27.1257C27.0759 27.3069 26.976 27.3787 26.773 27.3787C25.7362 27.3693 24.7025 27.3662 23.6657 27.3787C23.4252 27.3818 23.3503 27.26 23.2753 27.0789C22.963 26.3356 22.632 25.5986 22.329 24.8491C22.226 24.593 22.0605 24.4587 21.8231 24.3276C21.1142 23.9341 20.4428 23.8966 19.7151 24.3026C19.2123 24.5836 18.6408 24.7429 18.1068 24.9678C17.9101 25.0521 17.782 25.0209 17.629 24.8647C16.917 24.1339 16.1925 23.4094 15.4617 22.6974C15.2993 22.5412 15.2868 22.4069 15.3742 22.2164C15.5085 21.9104 15.6241 21.5919 15.7615 21.2421C13.6473 21.2421 11.5924 21.2421 9.53434 21.2421C9.26889 21.2421 9.08463 21.3857 8.92848 21.5856C8.43506 22.2071 7.94476 22.8348 7.43259 23.4406C7.2702 23.6343 7.32954 23.781 7.39512 23.9747C7.67306 24.7773 7.44509 25.6267 6.81113 26.1826C6.19591 26.7229 5.32461 26.8447 4.58447 26.4918C3.83808 26.1357 3.38526 25.3613 3.42585 24.5212C3.48831 23.3032 4.67816 22.3757 5.86487 22.6568C6.18342 22.7317 6.34893 22.6568 6.53319 22.4101C6.95791 21.8417 7.4201 21.3014 7.85419 20.7424C8.31639 20.1522 8.90975 19.8742 9.65925 19.8774C11.7454 19.8867 13.8315 19.8805 15.9176 19.8774C16.4236 19.8774 16.5016 19.7649 16.3143 19.2996C16.2299 19.0904 16.1425 18.8811 16.055 18.6719C15.8208 18.1035 15.418 17.835 14.7903 17.835C12.448 17.835 10.109 17.8381 7.76675 17.8287C7.50754 17.8287 7.37326 17.8974 7.24522 18.1348C6.79551 18.9717 5.87112 19.359 4.97171 19.1279C4.04732 18.8905 3.41961 18.0785 3.42585 17.1354C3.4321 16.211 4.05981 15.4147 4.96547 15.1805C5.868 14.9462 6.78927 15.3366 7.24522 16.1642C7.35764 16.3672 7.45758 16.4827 7.71678 16.4796C9.34696 16.464 10.9803 16.4671 12.6104 16.4796C12.8915 16.4796 12.9696 16.4015 12.9633 16.1236C12.9446 15.3022 12.9696 14.4778 12.9508 13.6565C12.9446 13.391 13.0164 13.2442 13.2756 13.1505C13.6223 13.0287 13.9533 12.8632 14.3811 12.679L14.3624 12.6852ZM6.1272 5.57115C6.12408 5.20576 5.81803 4.90283 5.45265 4.89971C5.08726 4.89971 4.77809 5.19951 4.77184 5.5649C4.76247 5.9459 5.08726 6.26756 5.46826 6.25819C5.83365 6.24882 6.13345 5.93653 6.13032 5.57115H6.1272ZM5.45265 11.7077C5.81803 11.7046 6.12096 11.3986 6.1272 11.0332C6.13033 10.6522 5.80242 10.3336 5.42142 10.3493C5.05603 10.3649 4.76247 10.6803 4.76872 11.0425C4.77809 11.4079 5.08726 11.7077 5.45265 11.7046V11.7077ZM6.1272 17.1666C6.13345 16.8013 5.83365 16.489 5.46826 16.4796C5.106 16.4671 4.78746 16.7638 4.76872 17.126C4.74998 17.507 5.0654 17.8381 5.4464 17.835C5.81178 17.835 6.11783 17.532 6.12408 17.1666H6.1272ZM6.1272 24.6836C6.14594 24.3213 5.85863 23.9965 5.49324 23.9715C5.13098 23.9466 4.80307 24.2307 4.77184 24.5961C4.74061 24.9771 5.04354 25.3175 5.42454 25.33C5.78992 25.3425 6.10534 25.049 6.1272 24.6836Z" fill="white"/>
<path d="M18.3879 15.1051C18.3911 11.5543 21.1205 8.60623 24.6713 8.31892C28.1534 8.03473 31.345 10.53 31.9134 13.9746C32.1633 15.4954 31.9353 16.9445 31.2076 18.2999C31.0609 18.5747 31.1108 18.709 31.3107 18.9057C33.3625 20.945 35.4111 22.9905 37.4535 25.0423C38.406 26.001 38.3623 27.422 37.3786 28.2371C36.5104 28.9553 35.3237 28.9023 34.4867 28.0809C33.3937 27.0098 32.3163 25.9167 31.2326 24.8331C30.1896 23.79 29.1371 22.7532 28.1065 21.6976C27.8848 21.4696 27.7162 21.4415 27.4164 21.5446C22.9787 23.0686 18.3848 19.7833 18.3911 15.1051H18.3879ZM30.6486 15.1332C30.6486 12.1258 28.2159 9.66803 25.2303 9.66491C22.2011 9.66179 19.7558 12.0914 19.7527 15.1144C19.7495 18.1094 22.1886 20.5515 25.1897 20.564C28.1784 20.5734 30.6455 18.1187 30.6486 15.1363V15.1332ZM36.779 26.6287C36.7727 26.3383 36.6353 26.1509 36.4604 25.9761C34.4555 23.9742 32.4506 21.9724 30.4519 19.9644C30.2801 19.7895 30.1677 19.7364 29.9834 19.9488C29.8086 20.1486 29.6056 20.3423 29.3776 20.4797C29.0528 20.6795 29.134 20.8169 29.3557 21.0387C31.345 23.0155 33.325 25.0017 35.3112 26.9848C35.4111 27.0847 35.5111 27.1909 35.6297 27.2627C35.8764 27.4157 36.1419 27.422 36.3948 27.269C36.6447 27.1191 36.7727 26.8942 36.779 26.6319V26.6287Z" fill="white"/>
<path d="M26.9135 15.7957C26.2265 15.7957 25.8829 16.1382 25.8829 16.8231C25.8829 17.8662 25.8829 17.8568 24.843 17.8475C24.5713 17.8475 24.5057 17.7631 24.5151 17.507C24.5338 17.0386 24.5088 16.5702 24.5245 16.1048C24.5338 15.8644 24.462 15.7832 24.2153 15.7926C23.7468 15.8113 23.2784 15.7863 22.8131 15.8019C22.5664 15.8113 22.4727 15.7551 22.4696 15.4803C22.4602 14.4341 22.4477 14.4341 23.4908 14.4341C24.5338 14.4341 24.5213 14.4341 24.5213 13.4066C24.5213 12.3792 24.5213 12.3729 25.5613 12.3823C25.833 12.3823 25.8986 12.4666 25.8892 12.7227C25.8705 13.1911 25.8954 13.6596 25.8798 14.1249C25.8705 14.3654 25.9423 14.4466 26.189 14.4372C26.6699 14.4185 27.154 14.4403 27.6349 14.4278C27.8442 14.4216 27.9659 14.4715 27.9285 14.7058C27.9285 14.7183 27.9285 14.7339 27.9285 14.7495C27.9493 15.4449 27.612 15.7926 26.9166 15.7926L26.9135 15.7957Z" fill="white"/>
</svg>
