<svg width="43" height="43" viewBox="0 0 43 43" fill="none" xmlns="http://www.w3.org/2000/svg">
<path d="M43.0056 32.6731C42.8006 33.5767 42.4454 34.388 41.7062 35C40.9786 35.6005 40.1354 35.8343 39.2201 35.8401C37.9178 35.8487 36.6185 35.8487 35.3162 35.8401C34.2565 35.8343 33.6905 35.2569 33.6905 34.1945C33.6905 29.5639 33.6905 24.9333 33.6905 20.3027C33.6905 19.2028 34.242 18.6399 35.3422 18.6572C35.7089 18.663 35.8157 18.585 35.7811 18.1982C35.4635 14.5635 34.1265 11.3764 31.6029 8.72332C29.3708 6.37915 26.6566 4.88085 23.4313 4.47957C18.0779 3.8098 13.7582 5.73826 10.4145 9.90696C8.70507 12.0375 7.75508 14.5116 7.35083 17.2022C7.29597 17.5746 7.2902 17.9557 7.23822 18.3281C7.20068 18.6023 7.31041 18.6514 7.55873 18.6543C8.86965 18.6745 9.33165 19.1566 9.33165 20.4731C9.33165 24.9911 9.33165 29.5091 9.33165 34.03C9.33165 35.1328 9.1122 35.459 8.07559 35.8083C7.84171 35.8863 7.91101 36.0364 7.92833 36.1721C8.06404 37.1421 8.91008 37.936 9.91204 37.9591C11.2836 37.9908 12.6552 37.9735 14.0238 37.9764C14.8063 37.9764 15.5917 37.9706 16.3742 37.9793C16.585 37.9793 16.7352 37.9302 16.8767 37.757C17.1365 37.4336 17.4946 37.2778 17.9075 37.2778C20.076 37.2749 22.2445 37.2633 24.413 37.2835C25.21 37.2893 25.7788 37.8811 25.7932 38.6779C25.8106 39.6421 25.8019 40.6093 25.7961 41.5735C25.7904 42.3212 25.3284 42.7254 24.6989 42.9967H17.6447C17.3878 42.8639 17.0759 42.7946 16.9055 42.5435C16.7352 42.2923 16.5157 42.275 16.253 42.275C14.2953 42.2808 12.3346 42.2808 10.3769 42.275C9.95824 42.275 9.53378 42.2721 9.12087 42.2028C5.9735 41.6832 3.85119 39.3419 3.62019 36.1403C3.59998 35.8805 3.49603 35.8054 3.26792 35.791C1.50944 35.6755 0.039703 34.1859 0.0223781 32.295C-0.00649686 28.9115 -0.00938435 25.5251 0.0252656 22.1417C0.0425905 20.5452 1.05899 19.2779 2.56915 18.816C2.80303 18.7438 2.90987 18.637 2.91853 18.3858C2.94163 17.6035 3.02537 16.824 3.16108 16.0532C3.94359 11.5409 5.99371 7.71002 9.43272 4.68165C13.969 0.689052 19.2646 -0.820802 25.1724 0.426343C31.5884 1.7803 35.963 5.74981 38.5935 11.6882C39.5002 13.735 39.9737 15.906 40.0806 18.1462C40.0979 18.5302 40.1672 18.7755 40.6147 18.8737C41.1085 18.9805 41.5185 19.2981 41.891 19.6474C42.5118 20.2248 42.8092 20.9667 43.0056 21.7606V32.6731ZM7.90234 27.2284C7.90234 24.9766 7.89657 22.7248 7.90812 20.4731C7.90812 20.1728 7.85037 20.0631 7.5212 20.0689C6.26225 20.0891 5.0033 20.0718 3.74436 20.0775C2.35547 20.0833 1.46035 20.9725 1.44591 22.3582C1.44014 23.1001 1.44591 23.8421 1.44591 24.5811C1.44591 27.0696 1.44302 29.561 1.44591 32.0496C1.44591 33.493 2.31793 34.3822 3.76168 34.4024C5.00619 34.4168 6.2507 34.3937 7.49521 34.4139C7.83882 34.4197 7.90812 34.3014 7.90523 33.9838C7.89368 31.732 7.89946 29.4802 7.89946 27.2284H7.90234ZM35.1198 27.24C35.1198 29.4918 35.1198 31.7436 35.1198 33.9953C35.1198 34.235 35.1054 34.4197 35.4519 34.4139C36.7397 34.3966 38.0276 34.4255 39.3125 34.3995C40.71 34.3735 41.5734 33.4757 41.5763 32.0813C41.5821 28.8509 41.5821 25.6204 41.5763 22.39C41.5763 20.9754 40.6783 20.0833 39.2692 20.0775C38.0247 20.0718 36.7802 20.0862 35.5328 20.0689C35.2065 20.0631 35.1112 20.1468 35.1141 20.4817C35.1285 22.7335 35.1227 24.9853 35.1227 27.2371L35.1198 27.24ZM21.5544 1.43965C16.8651 1.50027 12.8659 3.20644 9.57709 6.5004C6.51057 9.57208 4.84738 13.3395 4.39404 17.6439C4.2872 18.6485 4.29875 18.6312 5.29494 18.6572C5.67031 18.6658 5.79736 18.5648 5.81469 18.1808C5.87821 16.7056 6.16696 15.2622 6.65784 13.8765C8.19687 9.54032 10.9689 6.27234 15.1673 4.30346C18.3146 2.82825 21.6093 2.50492 24.9876 3.31037C28.7125 4.19665 31.6866 6.24636 33.9648 9.31225C35.81 11.795 36.8552 14.5838 37.17 17.6583C37.2739 18.6774 37.2912 18.6658 38.3307 18.6601C38.6079 18.6601 38.6801 18.585 38.6686 18.3021C38.6253 17.2917 38.4693 16.2957 38.2441 15.317C37.3923 11.6016 35.5963 8.42309 32.7579 5.8624C29.5759 2.99281 25.8308 1.52337 21.5544 1.44831V1.43965ZM12.8457 40.8315C12.8457 40.8315 12.8457 40.8402 12.8457 40.846C13.7409 40.846 14.636 40.846 15.5311 40.846C16.4926 40.846 16.4724 40.846 16.4984 39.8875C16.51 39.4978 16.3945 39.3996 16.0104 39.4025C13.9545 39.417 11.8957 39.4372 9.83985 39.3823C8.22863 39.339 6.92348 38.1785 6.55677 36.6224C6.49614 36.3713 6.61164 36.0075 6.38641 35.8863C6.16696 35.7679 5.84067 35.8459 5.56059 35.843C5.00041 35.843 5.00041 35.843 5.06105 36.3944C5.3267 38.8136 7.34795 40.7305 9.77921 40.8229C10.7985 40.8633 11.8207 40.8287 12.8428 40.8287L12.8457 40.8315ZM21.1848 38.7097C20.2204 38.7097 19.256 38.7212 18.2915 38.7039C17.997 38.6981 17.9104 38.7905 17.9162 39.0821C17.9335 39.8067 17.9306 40.5342 17.9162 41.2617C17.9133 41.4926 17.9826 41.5764 18.2251 41.5764C20.1828 41.5677 22.1377 41.5677 24.0954 41.5764C24.3206 41.5764 24.3784 41.4984 24.3755 41.2848C24.3639 40.5457 24.3553 39.8038 24.3755 39.0648C24.3842 38.753 24.2629 38.701 23.9886 38.7068C23.053 38.7212 22.1175 38.7126 21.179 38.7126L21.1848 38.7097Z" fill="white"/>
<path d="M15.537 12.7533C15.7102 12.7475 15.8632 12.8168 16.0134 12.8919C16.4003 13.0853 16.819 13.2354 17.1684 13.4808C17.6506 13.8214 18.0722 13.68 18.5255 13.4577C18.6728 13.3855 18.719 13.2758 18.7652 13.1401C18.95 12.583 19.1434 12.0287 19.3225 11.4715C19.4437 11.0933 19.6949 10.9028 20.0819 10.8537C21.0319 10.7382 21.979 10.7382 22.9289 10.8537C23.3159 10.8999 23.5728 11.0847 23.6941 11.4628C23.8731 12.02 24.0608 12.5772 24.2543 13.1315C24.3871 13.5183 25.1292 13.8243 25.4988 13.6453C25.9897 13.4057 26.4834 13.1748 26.9599 12.915C27.3815 12.6869 27.7366 12.7158 28.112 13.0275C28.7963 13.5905 29.4142 14.2112 29.9802 14.8896C30.3036 15.2793 30.3382 15.6431 30.0957 16.079C29.8445 16.5294 29.6279 16.9999 29.3998 17.4647C29.1804 17.9064 29.4807 18.631 29.9455 18.7898C30.474 18.9688 31.0024 19.1507 31.5366 19.3181C31.935 19.4423 32.1198 19.7079 32.1689 20.112C32.2786 21.0474 32.2786 21.9798 32.1689 22.9152C32.1198 23.3223 31.9264 23.5792 31.5279 23.7004C31.0081 23.8592 30.4913 24.0411 29.9773 24.2143C29.4807 24.3818 29.1775 25.0948 29.4056 25.5596C29.6481 26.0475 29.8878 26.5383 30.139 27.0204C30.3354 27.3986 30.2978 27.7306 30.0264 28.0655C29.4431 28.7872 28.7934 29.4367 28.0716 30.0199C27.7337 30.2913 27.4046 30.3288 27.0263 30.1325C26.5556 29.8871 26.0792 29.6533 25.6028 29.4165C25.0859 29.1596 24.3929 29.4541 24.2081 30.0112C24.0406 30.5136 23.8616 31.0159 23.7057 31.5211C23.5844 31.9195 23.3245 32.1129 22.9174 32.162C21.9818 32.2717 21.0492 32.2746 20.1136 32.162C19.7094 32.1129 19.4437 31.9281 19.3196 31.5298C19.1521 30.9957 18.9702 30.4674 18.7912 29.9391C18.6323 29.4714 17.9105 29.174 17.4658 29.3934C17.0009 29.6215 16.5303 29.838 16.0798 30.0892C15.6438 30.3288 15.28 30.297 14.8902 29.9737C14.2087 29.4079 13.5908 28.7901 13.0277 28.1059C12.7159 27.7306 12.687 27.3726 12.9151 26.954C13.175 26.4748 13.4089 25.9811 13.6457 25.4932C13.8247 25.1237 13.5186 24.3846 13.1317 24.249C12.5773 24.0584 12.02 23.8708 11.4627 23.6889C11.1047 23.5734 10.9054 23.3338 10.8592 22.9643C10.7351 21.9885 10.7322 21.0127 10.8592 20.037C10.9083 19.6645 11.1104 19.4336 11.4714 19.3181C11.9911 19.1536 12.5051 18.9775 13.022 18.8042C13.5504 18.6281 13.8507 17.9237 13.6052 17.433C13.3627 16.9451 13.1201 16.4572 12.8718 15.9722C12.687 15.6084 12.7217 15.2851 12.9815 14.9618C13.5706 14.2256 14.226 13.5616 14.9681 12.9814C15.1385 12.8486 15.3117 12.7388 15.537 12.7504V12.7533ZM27.4132 28.715C27.5749 28.5678 27.7395 28.4205 27.9012 28.2704C28.7617 27.4794 28.8021 27.4563 28.239 26.469C27.7972 25.6924 27.6038 24.9736 28.1466 24.1797C28.2448 24.0353 28.2737 23.8419 28.3314 23.6687C28.444 23.3425 28.6693 23.1346 28.9984 23.0278C29.5038 22.8661 30.0033 22.6843 30.5115 22.5313C30.7021 22.4735 30.7829 22.3782 30.7974 22.1819C30.8291 21.7345 30.8291 21.287 30.7974 20.8395C30.7829 20.6432 30.7078 20.5451 30.5173 20.4873C30.0091 20.3343 29.5095 20.1553 29.0042 19.9908C28.727 19.8984 28.5162 19.7454 28.3834 19.4711C27.8675 18.3933 27.8733 17.3242 28.4007 16.2638C28.6183 15.8269 28.5528 15.4208 28.2044 15.0455C27.4739 14.2631 27.4508 14.2227 26.5268 14.7539C25.7327 15.2129 25.0397 15.3313 24.1475 14.904C23.4631 14.5749 23.056 14.2141 22.8423 13.4894C22.4265 12.072 22.3514 12.0604 20.8644 12.2221C20.6536 12.2452 20.5468 12.3145 20.4832 12.5252C20.336 13.0218 20.1569 13.5068 19.9981 13.9975C19.9028 14.2891 19.744 14.5114 19.4524 14.6471C18.3706 15.1494 17.3012 15.1379 16.2444 14.6125C15.8228 14.4027 15.4388 14.4575 15.0923 14.777C14.2636 15.542 14.226 15.5622 14.7631 16.5149C15.202 17.2944 15.4503 18.0277 14.8786 18.8418C14.7775 18.9832 14.7516 19.1795 14.6909 19.3528C14.5783 19.679 14.3531 19.8868 14.0239 19.9937C13.5186 20.1553 13.0191 20.3372 12.5109 20.4902C12.3203 20.5479 12.2394 20.6432 12.225 20.8395C12.1932 21.287 12.1932 21.7345 12.225 22.1819C12.2394 22.3782 12.3145 22.4764 12.5051 22.5341C13.0133 22.6871 13.5128 22.8661 14.0181 23.0307C14.2953 23.1231 14.5061 23.2761 14.6389 23.5503C15.1548 24.6281 15.1491 25.6972 14.6216 26.7577C14.4041 27.1946 14.4695 27.6007 14.818 27.976C15.5485 28.7583 15.5716 28.7987 16.4956 28.2675C17.2897 27.8085 17.9827 27.6902 18.8749 28.1174C19.5592 28.4465 19.9664 28.8074 20.18 29.532C20.5958 30.9495 20.6709 30.961 22.158 30.7994C22.3688 30.7763 22.4756 30.707 22.5391 30.4962C22.6864 29.9997 22.8683 29.5176 23.0213 29.0239C23.1282 28.6746 23.3447 28.4523 23.6855 28.3253C24.0637 28.1838 24.442 28.0366 24.8087 27.8663C25.1263 27.719 25.4208 27.7277 25.7269 27.8865C26.186 28.1232 26.6509 28.3484 27.1129 28.5793C27.1995 28.6226 27.2891 28.663 27.4074 28.7208L27.4132 28.715Z" fill="white"/>
<path d="M26.5296 21.4949C26.544 24.2461 24.2658 26.5325 21.514 26.5268C18.7507 26.521 16.4926 24.2606 16.4897 21.5007C16.4897 18.7639 18.7333 16.515 21.4851 16.4919C24.234 16.4688 26.5151 18.7321 26.5267 21.4949H26.5296ZM25.0887 21.5613C25.1695 19.6588 23.567 18.0104 21.566 17.9296C19.6602 17.8545 18.0259 19.4394 17.9335 21.4545C17.8469 23.3483 19.4523 25.0025 21.4562 25.0862C23.3591 25.167 25.005 23.5706 25.0887 21.5613Z" fill="white"/>
</svg>
